HIERARCHY
ROOT Hips
{
  OFFSET 5.84602e-005 68.8428 3.50346
  CHANNELS 6 Xposition Yposition Zposition Zrotation Xrotation Yrotation
  JOINT Spine
  {
    OFFSET 0 8.597 -4.6522
    CHANNELS 3 Zrotation Xrotation Yrotation
    JOINT Spine1
    {
      OFFSET 0 7.8454 0.4098
      CHANNELS 3 Zrotation Xrotation Yrotation
      JOINT Spine2
      {
        OFFSET 0 9.7078 -2.1609
        CHANNELS 3 Zrotation Xrotation Yrotation
        JOINT Neck
        {
          OFFSET 0 21.8761 -0.4549
          CHANNELS 3 Zrotation Xrotation Yrotation
          JOINT Head
          {
            OFFSET 0 12.3537 3.3602
            CHANNELS 3 Zrotation Xrotation Yrotation
            End Site
            {
              OFFSET 0.0001 18.9506 0.5657
            }
          }
        }
        JOINT LeftShoulder
        {
          OFFSET 2.2086 21.1115 7.2329
          CHANNELS 3 Zrotation Xrotation Yrotation
          JOINT LeftArm
          {
            OFFSET 13.1193 3.0282 -4.8998
            CHANNELS 3 Zrotation Xrotation Yrotation
            JOINT LeftForeArm
            {
              OFFSET 27.4081 -0.0973053 -0.2375
              CHANNELS 3 Zrotation Xrotation Yrotation
              JOINT LeftHand
              {
                OFFSET 22.8641 0.0662994 -0.1369
                CHANNELS 3 Zrotation Xrotation Yrotation
                JOINT LeftHandIndex1
                {
                  OFFSET 8.8614 0.775009 2.4612
                  CHANNELS 3 Zrotation Xrotation Yrotation
                  JOINT LeftHandIndex2
                  {
                    OFFSET 3.3146 -0.808304 0.5841
                    CHANNELS 3 Zrotation Xrotation Yrotation
                    JOINT LeftHandIndex3
                    {
                      OFFSET 2.2628 -0.552002 0.3989
                      CHANNELS 3 Zrotation Xrotation Yrotation
                      End Site
                      {
                        OFFSET 1.6102 -0.4807 0.2612
                      }
                    }
                  }
                }
                JOINT LeftHandMiddle1
                {
                  OFFSET 8.9937 0.895004 0.2143
                  CHANNELS 3 Zrotation Xrotation Yrotation
                  JOINT LeftHandMiddle2
                  {
                    OFFSET 4.0984 0.0113983 -0.0242
                    CHANNELS 3 Zrotation Xrotation Yrotation
                    JOINT LeftHandMiddle3
                    {
                      OFFSET 2.2716 0.00689697 -0.0138001
                      CHANNELS 3 Zrotation Xrotation Yrotation
                      End Site
                      {
                        OFFSET 2.0404 -0.1441 0.0027
                      }
                    }
                  }
                }
                JOINT LeftHandRing1
                {
                  OFFSET 8.5234 0.597198 -2.0164
                  CHANNELS 3 Zrotation Xrotation Yrotation
                  JOINT LeftHandRing2
                  {
                    OFFSET 3.7188 -0.188293 -0.2328
                    CHANNELS 3 Zrotation Xrotation Yrotation
                    JOINT LeftHandRing3
                    {
                      OFFSET 2.1191 -0.106598 -0.1332
                      CHANNELS 3 Zrotation Xrotation Yrotation
                      End Site
                      {
                        OFFSET 1.8737 -0.2304 -0.0886
                      }
                    }
                  }
                }
                JOINT LeftHandPinky1
                {
                  OFFSET 7.9094 -0.601089 -3.4825
                  CHANNELS 3 Zrotation Xrotation Yrotation
                  JOINT LeftHandPinky2
                  {
                    OFFSET 2.2874 -0.477005 -0.6314
                    CHANNELS 3 Zrotation Xrotation Yrotation
                    JOINT LeftHandPinky3
                    {
                      OFFSET 1.6774 -0.349396 -0.4633
                      CHANNELS 3 Zrotation Xrotation Yrotation
                      End Site
                      {
                        OFFSET 1.4888 -0.4091 -0.3416
                      }
                    }
                  }
                }
                JOINT LeftHandThumb1
                {
                  OFFSET 1.833 -1.3875 1.3896
                  CHANNELS 3 Zrotation Xrotation Yrotation
                  JOINT LeftHandThumb2
                  {
                    OFFSET 3.4129 -1.121 2.5732
                    CHANNELS 3 Zrotation Xrotation Yrotation
                    JOINT LeftHandThumb3
                    {
                      OFFSET 2.2474 -0.804199 1.6192
                      CHANNELS 3 Zrotation Xrotation Yrotation
                      End Site
                      {
                        OFFSET 1.6527 -0.5689 1.1317
                      }
                    }
                  }
                }
              }
            }
          }
        }
        JOINT RightShoulder
        {
          OFFSET -2.2086 21.1115 7.2329
          CHANNELS 3 Zrotation Xrotation Yrotation
          JOINT RightArm
          {
            OFFSET -13.1216 3.0287 -4.9007
            CHANNELS 3 Zrotation Xrotation Yrotation
            JOINT RightForeArm
            {
              OFFSET -27.4081 -0.0973053 -0.2375
              CHANNELS 3 Zrotation Xrotation Yrotation
              JOINT RightHand
              {
                OFFSET -22.8641 0.0664063 -0.1369
                CHANNELS 3 Zrotation Xrotation Yrotation
                JOINT RightHandIndex1
                {
                  OFFSET -8.8614 0.774994 2.4612
                  CHANNELS 3 Zrotation Xrotation Yrotation
                  JOINT RightHandIndex2
                  {
                    OFFSET -3.3146 -0.808304 0.5841
                    CHANNELS 3 Zrotation Xrotation Yrotation
                    JOINT RightHandIndex3
                    {
                      OFFSET -2.2628 -0.552002 0.3989
                      CHANNELS 3 Zrotation Xrotation Yrotation
                      End Site
                      {
                        OFFSET -1.6102 -0.4807 0.2612
                      }
                    }
                  }
                }
                JOINT RightHandMiddle1
                {
                  OFFSET -8.9937 0.894989 0.2143
                  CHANNELS 3 Zrotation Xrotation Yrotation
                  JOINT RightHandMiddle2
                  {
                    OFFSET -4.0984 0.0113983 -0.0242
                    CHANNELS 3 Zrotation Xrotation Yrotation
                    JOINT RightHandMiddle3
                    {
                      OFFSET -2.2716 0.00691223 -0.0138001
                      CHANNELS 3 Zrotation Xrotation Yrotation
                      End Site
                      {
                        OFFSET -2.0404 -0.1441 0.0027
                      }
                    }
                  }
                }
                JOINT RightHandRing1
                {
                  OFFSET -8.5234 0.597198 -2.0164
                  CHANNELS 3 Zrotation Xrotation Yrotation
                  JOINT RightHandRing2
                  {
                    OFFSET -3.7188 -0.188309 -0.2328
                    CHANNELS 3 Zrotation Xrotation Yrotation
                    JOINT RightHandRing3
                    {
                      OFFSET -2.1191 -0.106598 -0.1332
                      CHANNELS 3 Zrotation Xrotation Yrotation
                      End Site
                      {
                        OFFSET -1.8737 -0.2304 -0.0886
                      }
                    }
                  }
                }
                JOINT RightHandPinky1
                {
                  OFFSET -7.9094 -0.601105 -3.4825
                  CHANNELS 3 Zrotation Xrotation Yrotation
                  JOINT RightHandPinky2
                  {
                    OFFSET -2.2874 -0.477005 -0.6314
                    CHANNELS 3 Zrotation Xrotation Yrotation
                    JOINT RightHandPinky3
                    {
                      OFFSET -1.6774 -0.349396 -0.4633
                      CHANNELS 3 Zrotation Xrotation Yrotation
                      End Site
                      {
                        OFFSET -1.4888 -0.4091 -0.3416
                      }
                    }
                  }
                }
                JOINT RightHandThumb1
                {
                  OFFSET -1.833 -1.38751 1.3896
                  CHANNELS 3 Zrotation Xrotation Yrotation
                  JOINT RightHandThumb2
                  {
                    OFFSET -3.41299 -1.12099 2.5732
                    CHANNELS 3 Zrotation Xrotation Yrotation
                    JOINT RightHandThumb3
                    {
                      OFFSET -2.24741 -0.804108 1.6192
                      CHANNELS 3 Zrotation Xrotation Yrotation
                      End Site
                      {
                        OFFSET -1.6527 -0.5689 1.1317
                      }
                    }
                  }
                }
              }
            }
          }
        }
      }
    }
  }
  JOINT RightUpLeg
  {
    OFFSET -9.1966 3.8861 -0.7581
    CHANNELS 3 Zrotation Xrotation Yrotation
    JOINT RightLeg
    {
      OFFSET -0.7359 -41.0265 0
      CHANNELS 3 Zrotation Xrotation Yrotation
      JOINT RightFoot
      {
        OFFSET 0 -40.2855 0
        CHANNELS 3 Zrotation Xrotation Yrotation
        JOINT RightToeBase
        {
          OFFSET 0 -5.6122 11.7359
          CHANNELS 3 Zrotation Xrotation Yrotation
          End Site
          {
            OFFSET 0 0 7.8731
          }
        }
      }
    }
  }
  JOINT LeftUpLeg
  {
    OFFSET 9.1965 3.8864 -0.7581
    CHANNELS 3 Zrotation Xrotation Yrotation
    JOINT LeftLeg
    {
      OFFSET 0.7359 -41.0268 0
      CHANNELS 3 Zrotation Xrotation Yrotation
      JOINT LeftFoot
      {
        OFFSET 0 -40.2855 0
        CHANNELS 3 Zrotation Xrotation Yrotation
        JOINT LeftToeBase
        {
          OFFSET 0 -5.6122 11.7359
          CHANNELS 3 Zrotation Xrotation Yrotation
          End Site
          {
            OFFSET 0 0 7.8731
          }
        }
      }
    }
  }
}
MOTION
Frames:	4
Frame Time:	0.0333333
5.84602e-005 68.8428 3.50346 0 0 -0 0 0 -0 0 0 -0 0 0 -0 0 0 -0 0 0 -0 0 0 -0 0 0 -0 0 0 -0 0 0 -0 0 0 -0 0 0 -0 0 0 -0 0 0 -0 -0.0146107 -8.87603e-005 -2.63497e-007 2.99804e-018 -2.42657e-020 -1.42182e-022 0 0 -0 -0.0187562 -0.001176 5.858e-005 5.06224e-018 3.88251e-019 1.21329e-020 0 0 -0 -0.012269 -0.00324817 0.000675346 -1.74678e-018 3.88251e-019 -0 0 0 -0 0 0 -0 0 0 -0 0 0 -0 0 0 -0 0 0 -0 0 0 -0 0 0 -0 0 0 -0 0 0 -0 0 0 -0 0.0149955 -9.10982e-005 2.64101e-007 -9.69331e-018 1.21329e-020 -4.7394e-023 0 0 -0 0.0189956 -0.00119102 -5.96516e-005 -5.41541e-019 0 2.42657e-020 0 0 -0 0.0122698 -0.00324857 -0.000673756 -2.00796e-019 0 -1.94126e-019 0 0 -0 0 0 -0 0 0 -0 3.39842 1.33031 -0.0637918 -5.65207e-008 0.834868 -0.000436188 -3.39935 -2.16518 -0.0642563 -8.89002e-024 -1.18485e-023 -1.48106e-024 -3.39844 1.35642 0.0640283 -3.18788e-007 0.782166 -0.000588827 3.39931 -2.13858 0.0634662 1.1399e-023 0 -0 
-1.96239 41.1442 -14.9738 -0 -6.59994 -0 0.0993417 10.5004 -0.0640579 0.216474 21.0007 -0.150916 0.216474 21.0007 -0.150916 0.359362 21.5026 -0.169031 3.37099 -4.86417 0.379337 9.16848 7.33969 -28.1845 -28.8976 -37.5957 -11.0348 31.6739 -1.59024 -92.0302 -2.17832 -21.0682 -12.836 7.19598e-007 -3.98367e-007 -2.25051e-007 7.19598e-007 -3.98367e-007 -2.25051e-007 -3.59799e-007 1.99184e-007 1.12525e-007 7.19598e-007 -3.98367e-007 -2.25051e-007 -0.014645 -8.90715e-005 2.16409e-006 -5.91826e-007 1.14069e-006 -2.51264e-006 7.19598e-007 -3.98367e-007 -2.25051e-007 -0.0187238 -0.00117433 5.57062e-005 -5.92201e-007 1.14069e-006 -2.51259e-006 7.19598e-007 -3.98367e-007 -2.25051e-007 -0.0122868 -0.00325603 0.000682307 -3.59797e-007 1.99173e-007 1.12557e-007 7.19598e-007 -3.98367e-007 -2.25051e-007 7.19598e-007 -3.98367e-007 -2.25051e-007 -3.59799e-007 1.99184e-007 1.12525e-007 -8.38383 7.92111 26.9194 28.2591 -37.736 10.8658 -31.5378 -1.14773 91.4308 0.92577 6.73637 -18.8785 4.77083e-015 -2.98177e-016 3.97569e-016 4.77083e-015 3.97569e-016 -0 4.77083e-015 -3.97569e-016 7.95139e-016 4.77083e-015 -2.98177e-016 3.97569e-016 0.0150201 -9.34889e-005 -6.11326e-006 1.27222e-014 -2.68359e-015 1.19271e-015 4.77083e-015 -2.98177e-016 3.97569e-016 0.018939 -0.00118737 -5.68559e-005 1.79315e-032 -1.2921e-015 7.95139e-016 4.77083e-015 -2.98177e-016 3.97569e-016 0.012322 -0.00326427 -0.000681498 -1.59028e-015 -1.49089e-015 3.97569e-016 4.77083e-015 -2.98177e-016 3.97569e-016 4.77083e-015 3.97569e-016 -0 4.77083e-015 -3.97569e-016 7.95139e-016 -8.57557 0.372968 -6.81766 -5.26779 74.4536 8.80154 -16.03 37.4528 -0.605139 -1.59028e-015 -4.77083e-015 -7.95139e-016 7.73958 0.891531 6.74337 4.89164 74.3327 -8.39038 15.4751 37.9763 1.49434 -2.64834e-031 -3.18055e-015 -4.77083e-015 
-2.84637 28.6542 -23.4051 -0 -9.90781 -0 0.158749 15.3719 -0.110021 0.370783 30.7433 -0.282416 0.370783 30.7433 -0.282416 0.571484 31.1139 -0.313614 4.91809 -7.94295 0.624034 15.6991 8.59007 -40.7906 -49.5778 -53.3132 -21.4901 36.6372 -34.9636 -119.056 -6.51374 -30.021 -19.7997 -6.36111e-015 -9.54166e-015 -0 -3.18055e-015 -3.18055e-015 -0 -3.18055e-015 -3.18055e-015 -0 -6.36111e-015 -9.54166e-015 -0 -0.0146035 -9.01745e-005 -6.7963e-007 9.54166e-015 3.18055e-015 3.18055e-015 -6.36111e-015 -9.54166e-015 -0 -0.0187256 -0.00117226 5.48363e-005 -0 0 1.27222e-014 -6.36111e-015 -9.54166e-015 -0 -0.0122731 -0.00325214 0.000676823 3.18055e-015 -6.36111e-015 1.27222e-014 -6.36111e-015 -9.54166e-015 -0 -3.18055e-015 -3.18055e-015 -0 -3.18055e-015 -3.18055e-015 -0 -14.7099 9.4424 39.0448 48.6196 -53.5412 21.2397 -37.0034 -34.6301 117.571 2.81821 8.85697 -27.8603 -2.76019e-007 -9.63443e-007 -4.71717e-008 7.95139e-016 -3.08116e-015 -0 -5.24851e-007 -6.87164e-007 -1.15108e-008 -2.76019e-007 -9.63443e-007 -4.71717e-008 0.0149911 -9.15087e-005 7.60171e-006 -5.24862e-007 -6.87166e-007 -1.14205e-008 -2.76019e-007 -9.63443e-007 -4.71717e-008 0.0189587 -0.00118786 -6.34398e-005 -5.24865e-007 -6.87165e-007 -1.13916e-008 -2.76019e-007 -9.63443e-007 -4.71717e-008 0.0122982 -0.00325695 -0.000681017 -5.24856e-007 -6.87166e-007 -1.14216e-008 -2.76019e-007 -9.63443e-007 -4.71717e-008 7.95139e-016 -3.08116e-015 -0 -5.24851e-007 -6.87164e-007 -1.15108e-008 -13.8569 0.24823 -10.3357 -158.665 72.7372 162.011 -20.5893 56.7568 -2.03819 4.39959e-007 7.23721e-008 -1.83542e-006 12.6187 1.00855 10.2537 158.885 72.988 -162.223 19.0151 57.5587 3.92809 -1.47359e-009 -1.69236e-006 -1.8353e-006 
-2.64985 31.4937 -21.6841 -0 -9.9237 -0 0.144481 14.6145 -0.101225 0.333957 29.2289 -0.255239 0.333957 29.2289 -0.255239 0.519807 28.8342 -0.380944 4.59532 -9.2381 0.729658 14.6834 7.11719 -37.2434 -44.1822 -49.981 -18.4762 37.1412 -26.6296 -113.594 -5.06573 -28.8293 -17.4956 -1.533e-006 4.67282e-007 4.58512e-007 -2.14897e-006 1.67498e-006 3.98302e-006 6.36111e-015 0 3.18055e-015 -1.533e-006 4.67282e-007 4.58512e-007 -0.0145983 -8.53448e-005 2.27245e-006 1.44435e-006 -8.75297e-007 3.90247e-007 -1.533e-006 4.67282e-007 4.58512e-007 -0.0187082 -0.00117006 5.47093e-005 1.44384e-006 -8.75448e-007 3.90209e-007 -1.533e-006 4.67282e-007 4.58512e-007 -0.0122718 -0.00324925 0.000680156 -1.59028e-015 -9.54166e-015 3.18055e-015 -1.533e-006 4.67282e-007 4.58512e-007 -2.14897e-006 1.67498e-006 3.98302e-006 6.36111e-015 0 3.18055e-015 -13.8621 7.86624 35.7068 43.321 -50.1742 18.2569 -37.3085 -26.2482 112.413 2.45949 7.74193 -26.5294 -3.17652e-007 -1.01314e-007 -3.85139e-006 3.97569e-016 1.2921e-015 1.59028e-015 3.17652e-007 1.01314e-007 3.85139e-006 -3.17652e-007 -1.01314e-007 -3.85139e-006 0.0149752 -9.07823e-005 5.66092e-006 -3.97569e-016 3.23025e-015 1.59028e-015 -3.17652e-007 -1.01314e-007 -3.85139e-006 0.0189365 -0.00118767 -5.02746e-005 -7.95139e-016 2.5842e-015 -0 -3.17652e-007 -1.01314e-007 -3.85139e-006 0.0122025 -0.00322966 -0.000670401 -2.89663e-032 1.04362e-015 1.59028e-015 -3.17652e-007 -1.01314e-007 -3.85139e-006 3.97569e-016 1.2921e-015 1.59028e-015 3.17652e-007 1.01314e-007 3.85139e-006 -12.7392 0.756229 -9.40108 -150.792 79.5566 154.299 -19.7272 52.3623 -1.57354 -8.96126e-007 3.14023e-006 2.27315e-008 11.6133 1.45916 9.34289 150.976 79.7855 -154.461 18.6764 53.2191 3.00849 -3.19597e-007 2.14251e-008 -1.67144e-006 
